<?xml version="1.0" encoding="UTF-8"?> <svg xmlns="http://www.w3.org/2000/svg" width="1679" height="546" viewBox="0 0 1679 546" fill="none"> <path fill-rule="evenodd" clip-rule="evenodd" d="M170.799 113.485C156.593 116.183 144.515 120.511 133.801 130.5C124.5 139.17 112.521 157.319 112.521 169.819V269.791C112.25 367.704 112.292 370.286 114.279 378.654C117.41 391.836 123.133 401.905 133.262 412.051C140.396 419.196 143.361 421.36 151.299 425.22C168.472 433.569 156.677 433 312.453 433C446.966 433 451.202 432.943 458.676 431.032C481.664 425.152 500.954 407.309 508.983 384.5L511.799 376.5L512.083 276C512.401 163.449 512.639 167.772 505.275 152.5C498.417 138.275 487.252 127.09 472.799 119.964C456.489 111.923 469.363 112.546 315.299 112.34C204.514 112.192 176.439 112.415 170.799 113.485ZM201.343 190.781C202.725 185.807 206.826 181.12 211.758 178.88C215.588 177.14 220.826 177.043 311.9 177.022C380.931 177.006 408.958 177.319 411.4 178.134C413.269 178.758 416.256 180.641 418.037 182.318C424.625 188.525 424.391 184.952 424.08 274.5C423.766 365.015 424.274 358.866 416.628 364.698L412.955 367.5L213.799 367.983L209.893 365.742C205.066 362.972 202.441 359.531 201.256 354.423C199.955 348.809 200.036 195.488 201.343 190.781Z" fill="#005EC4"></path> <path d="M164.353 1.148C127.838 4.961 91.223 21.19 62.075 46.481C27.903 76.132 3.773 123.839 0.643 167.94L0 177H33.023L33.719 169.25C36.617 136.95 51.29 105.029 74.523 80.48C104.155 49.17 143.23 33 189.26 33H200.299V0L186.549 0.133C178.987 0.206 168.998 0.663 164.353 1.148Z" fill="#005EC4"></path> <path d="M167.934 57.135C143.575 60.263 119.182 71.255 99.441 88C91.995 94.315 79.694 109.249 73.919 118.984C65.028 133.969 58.325 153.813 56.748 169.819L56.041 177H89.025L90.269 169.25C96.276 131.829 124.573 101.084 161.406 91.959C167.107 90.546 174.689 89.692 185.049 89.296L200.299 88.713V56L187.549 56.126C180.537 56.196 171.71 56.65 167.934 57.135Z" fill="#005EC4"></path> <path d="M559 433.046H648V266.046H702.04C753.9 266.046 756.236 266.126 759.956 268.023C762.087 269.111 764.882 271.473 766.166 273.273L768.5 276.546L769.036 433.046H858V349.504V346.708C858.001 271.095 858.001 259.242 853.985 248.957C853.239 247.045 852.353 245.187 851.303 242.983L851.095 242.546C842.058 223.568 828.251 211.182 808 203.887L801.5 201.546L559 201V433.046Z" fill="#2B2B2A"></path> <path d="M867.436 202.741C867.794 203.673 893.38 248.777 924.293 302.972C977.305 395.908 980.919 401.949 987.869 409.262C998.911 420.882 1012.22 428.501 1026.94 431.62C1035.39 433.412 1050.66 433.4 1059.18 431.595C1078.27 427.549 1096.07 415.327 1106.51 399.104C1108.83 395.497 1134.46 350.921 1163.47 300.046C1192.48 249.171 1217.11 206.083 1218.19 204.296L1220.16 201.046H1131.42L1090.74 267.296C1068.36 303.734 1048.59 335.911 1046.79 338.802C1045 341.693 1043.21 343.943 1042.81 343.802C1042.42 343.661 1036.3 334.096 1029.23 322.546C1022.16 310.996 1005.21 283.321 991.557 261.046C977.909 238.771 964.056 216.159 960.774 210.796L954.806 201.046H910.796C869.841 201.046 866.831 201.164 867.436 202.741Z" fill="#2B2B2A"></path> <path d="M1246 433.046H1334V201.046H1246V433.046Z" fill="#2B2B2A"></path> <path d="M1380 266.033L1528.38 266.546L1502.94 283.985C1488.95 293.577 1469.85 306.674 1460.5 313.091C1451.15 319.508 1433.15 331.847 1420.5 340.511C1394.49 358.326 1389.16 362.983 1384.88 371.648C1374.17 393.342 1382.76 418.509 1404.5 429.127L1411.5 432.546L1679 433.075V368.059L1530.57 367.546L1562.53 345.611C1580.11 333.547 1605.98 315.812 1620 306.2C1634.02 296.588 1649.56 285.922 1654.52 282.497C1669.55 272.119 1675.7 263.703 1678.24 250.017C1681.49 232.539 1671.25 213.215 1654.3 204.873L1647.54 201.546L1380 201.017V266.033Z" fill="#2B2B2A"></path> </svg> 