<svg width="19" height="19" viewBox="0 0 19 19" fill="none" xmlns="http://www.w3.org/2000/svg">
<g opacity="0.8">
<path d="M15.9286 16.5714H13.3572C12.9714 16.5714 12.7143 16.3143 12.7143 15.9286V13.3572C12.7143 12.9714 12.9714 12.7143 13.3572 12.7143H15.9286C16.3143 12.7143 16.5714 12.9714 16.5714 13.3572V15.9286C16.5714 16.3143 16.3143 16.5714 15.9286 16.5714ZM10.7857 16.5714H8.2143C7.82859 16.5714 7.57145 16.3143 7.57145 15.9286V13.3572C7.57145 12.9714 7.82859 12.7143 8.2143 12.7143H10.7857C11.1714 12.7143 11.4286 12.9714 11.4286 13.3572V15.9286C11.4286 16.3143 11.1714 16.5714 10.7857 16.5714ZM5.64287 16.5714H3.07145C2.68573 16.5714 2.42859 16.3143 2.42859 15.9286V13.3572C2.42859 12.9714 2.68573 12.7143 3.07145 12.7143H5.64287C6.02859 12.7143 6.28573 12.9714 6.28573 13.3572V15.9286C6.28573 16.3143 6.02859 16.5714 5.64287 16.5714ZM15.9286 11.4286H13.3572C12.9714 11.4286 12.7143 11.1714 12.7143 10.7857V8.2143C12.7143 7.82859 12.9714 7.57145 13.3572 7.57145H15.9286C16.3143 7.57145 16.5714 7.82859 16.5714 8.2143V10.7857C16.5714 11.1714 16.3143 11.4286 15.9286 11.4286ZM10.7857 11.4286H8.2143C7.82859 11.4286 7.57145 11.1714 7.57145 10.7857V8.2143C7.57145 7.82859 7.82859 7.57145 8.2143 7.57145H10.7857C11.1714 7.57145 11.4286 7.82859 11.4286 8.2143V10.7857C11.4286 11.1714 11.1714 11.4286 10.7857 11.4286ZM5.64287 11.4286H3.07145C2.68573 11.4286 2.42859 11.1714 2.42859 10.7857V8.2143C2.42859 7.82859 2.68573 7.57145 3.07145 7.57145H5.64287C6.02859 7.57145 6.28573 7.82859 6.28573 8.2143V10.7857C6.28573 11.1714 6.02859 11.4286 5.64287 11.4286ZM15.9286 6.28573H13.3572C12.9714 6.28573 12.7143 6.02859 12.7143 5.64287V3.07145C12.7143 2.68573 12.9714 2.42859 13.3572 2.42859H15.9286C16.3143 2.42859 16.5714 2.68573 16.5714 3.07145V5.64287C16.5714 6.02859 16.3143 6.28573 15.9286 6.28573ZM10.7857 6.28573H8.2143C7.82859 6.28573 7.57145 6.02859 7.57145 5.64287V3.07145C7.57145 2.68573 7.82859 2.42859 8.2143 2.42859H10.7857C11.1714 2.42859 11.4286 2.68573 11.4286 3.07145V5.64287C11.4286 6.02859 11.1714 6.28573 10.7857 6.28573Z" fill="white"/>
</g>
<path d="M5.64287 6.28573H3.07145C2.68573 6.28573 2.42859 6.02859 2.42859 5.64287V3.07145C2.42859 2.68573 2.68573 2.42859 3.07145 2.42859H5.64287C6.02859 2.42859 6.28573 2.68573 6.28573 3.07145V5.64287C6.28573 6.02859 6.02859 6.28573 5.64287 6.28573Z" fill="white"/>
</svg>
