<svg width="15" height="15" viewBox="0 0 15 15" fill="none" xmlns="http://www.w3.org/2000/svg">
<g clip-path="url(#clip0_2001_778)">
<path d="M1.31836 7.06055H5.74219C6.46916 7.06055 7.06055 6.46916 7.06055 5.74219V1.31836C7.06055 0.591387 6.46916 0 5.74219 0H1.31836C0.591387 0 0 0.591387 0 1.31836V5.74219C0 6.46916 0.591387 7.06055 1.31836 7.06055ZM2.22656 3.10547H3.10547V2.22656C3.10547 1.98366 3.30202 1.78711 3.54492 1.78711C3.78782 1.78711 3.98438 1.98366 3.98438 2.22656V3.10547H4.86328C5.10618 3.10547 5.30273 3.30202 5.30273 3.54492C5.30273 3.78782 5.10618 3.98438 4.86328 3.98438H3.98438V4.86328C3.98438 5.10618 3.78782 5.30273 3.54492 5.30273C3.30202 5.30273 3.10547 5.10618 3.10547 4.86328V3.98438H2.22656C1.98366 3.98438 1.78711 3.78782 1.78711 3.54492C1.78711 3.30202 1.98366 3.10547 2.22656 3.10547ZM13.6816 0H9.25781C8.53084 0 7.93945 0.591387 7.93945 1.31836V5.74219C7.93945 6.46916 8.53084 7.06055 9.25781 7.06055H13.6816C14.4086 7.06055 15 6.46916 15 5.74219V1.31836C15 0.591387 14.4086 0 13.6816 0ZM12.8027 3.98438H10.1367C9.89382 3.98438 9.69727 3.78782 9.69727 3.54492C9.69727 3.30202 9.89382 3.10547 10.1367 3.10547H12.8027C13.0456 3.10547 13.2422 3.30202 13.2422 3.54492C13.2422 3.78782 13.0456 3.98438 12.8027 3.98438ZM13.6816 7.93945H9.25781C8.53084 7.93945 7.93945 8.53084 7.93945 9.25781V13.6816C7.93945 14.4086 8.53084 15 9.25781 15H13.6816C14.4086 15 15 14.4086 15 13.6816V9.25781C15 8.53084 14.4086 7.93945 13.6816 7.93945ZM12.8027 12.7734H10.1367C9.89382 12.7734 9.69727 12.5769 9.69727 12.334C9.69727 12.0911 9.89382 11.8945 10.1367 11.8945H12.8027C13.0456 11.8945 13.2422 12.0911 13.2422 12.334C13.2422 12.5769 13.0456 12.7734 12.8027 12.7734ZM12.8027 11.0156H10.1367C9.89382 11.0156 9.69727 10.8191 9.69727 10.5762C9.69727 10.3333 9.89382 10.1367 10.1367 10.1367H12.8027C13.0456 10.1367 13.2422 10.3333 13.2422 10.5762C13.2422 10.8191 13.0456 11.0156 12.8027 11.0156ZM7.06055 13.6816V9.25781C7.06055 8.53084 6.46916 7.93945 5.74219 7.93945H1.31836C0.591387 7.93945 0 8.53084 0 9.25781V13.6816C0 14.4086 0.591387 15 1.31836 15H5.74219C6.46916 15 7.06055 14.4086 7.06055 13.6816ZM4.78775 12.0765C4.9594 12.2481 4.9594 12.5263 4.78775 12.6979C4.6161 12.8696 4.33799 12.8696 4.16634 12.6979L3.54492 12.0765L2.92351 12.6979C2.75186 12.8696 2.47374 12.8696 2.30209 12.6979C2.13044 12.5263 2.13044 12.2481 2.30209 12.0765L2.92351 11.4551L2.30209 10.8337C2.13044 10.662 2.13044 10.3839 2.30209 10.2122C2.47374 10.0406 2.75186 10.0406 2.92351 10.2122L3.54492 10.8337L4.16634 10.2122C4.33799 10.0406 4.6161 10.0406 4.78775 10.2122C4.9594 10.3839 4.9594 10.662 4.78775 10.8337L4.16634 11.4551L4.78775 12.0765Z" fill="white"/>
</g>
<defs>
<clipPath id="clip0_2001_778">
<rect width="15" height="15" fill="white"/>
</clipPath>
</defs>
</svg>
