<svg width="24" height="24" viewBox="0 0 24 24" fill="none" xmlns="http://www.w3.org/2000/svg">
<path fill-rule="evenodd" clip-rule="evenodd" d="M21.7401 9.121C21.7576 9.01371 21.7516 8.90389 21.7225 8.79915C21.6934 8.69441 21.6418 8.59725 21.5715 8.5144C21.5011 8.43155 21.4135 8.36499 21.3149 8.31934C21.2162 8.27368 21.1088 8.25003 21.0001 8.25H3.00007C2.89136 8.25003 2.78395 8.27368 2.68529 8.31934C2.58662 8.36499 2.49906 8.43155 2.42868 8.5144C2.35829 8.59725 2.30675 8.69441 2.27764 8.79915C2.24853 8.90389 2.24253 9.01371 2.26007 9.121L3.78507 18.444C3.8904 19.0878 4.22119 19.6733 4.71836 20.0957C5.21552 20.5181 5.84668 20.75 6.49907 20.75H17.5011C18.1535 20.75 18.7846 20.5181 19.2818 20.0957C19.7789 19.6733 20.1097 19.0878 20.2151 18.444L21.7401 9.121ZM20.1171 9.75L18.7341 18.202C18.6862 18.4945 18.5359 18.7605 18.31 18.9524C18.0842 19.1444 17.7975 19.2499 17.5011 19.25H6.49907C6.20266 19.2499 5.91595 19.1444 5.6901 18.9524C5.46425 18.7605 5.31397 18.4945 5.26607 18.202L3.88307 9.75H20.1171Z" fill="#297BFF"/>
<path d="M20.1171 9.75L18.7341 18.202C18.6862 18.4945 18.5359 18.7605 18.31 18.9524C18.0842 19.1444 17.7975 19.2499 17.5011 19.25H6.49907C6.20266 19.2499 5.91595 19.1444 5.6901 18.9524C5.46425 18.7605 5.31397 18.4945 5.26607 18.202L3.88307 9.75H20.1171Z" fill="white"/>
<path fill-rule="evenodd" clip-rule="evenodd" d="M18.6431 8.61399L15.6431 3.61399C15.5397 3.44556 15.374 3.32475 15.182 3.27781C14.9901 3.23087 14.7873 3.2616 14.6179 3.36332C14.4484 3.46504 14.326 3.62952 14.2772 3.82102C14.2283 4.01252 14.2571 4.21555 14.3571 4.38599L17.3571 9.38599C17.4605 9.55442 17.6262 9.67523 17.8181 9.72217C18.0101 9.76911 18.2129 9.73838 18.3823 9.63666C18.5517 9.53495 18.6742 9.37046 18.723 9.17896C18.7719 8.98746 18.7431 8.78443 18.6431 8.61399ZM6.64309 9.38599L9.64309 4.38599C9.74313 4.21555 9.77185 4.01252 9.72302 3.82102C9.67418 3.62952 9.55173 3.46504 9.38229 3.36332C9.21285 3.2616 9.01011 3.23087 8.81814 3.27781C8.62617 3.32475 8.46048 3.44556 8.35709 3.61399L5.35709 8.61399C5.25705 8.78443 5.22833 8.98746 5.27717 9.17896C5.326 9.37046 5.44845 9.53495 5.61789 9.63666C5.78733 9.73838 5.99007 9.76911 6.18204 9.72217C6.37402 9.67523 6.5397 9.55442 6.64309 9.38599Z" fill="#297BFF"/>
<path fill-rule="evenodd" clip-rule="evenodd" d="M22 8.25H2C1.80109 8.25 1.61032 8.32902 1.46967 8.46967C1.32902 8.61032 1.25 8.80109 1.25 9C1.25 9.19891 1.32902 9.38968 1.46967 9.53033C1.61032 9.67098 1.80109 9.75 2 9.75H12H22C22.1989 9.75 22.3897 9.67098 22.5303 9.53033C22.671 9.38968 22.75 9.19891 22.75 9C22.75 8.80109 22.671 8.61032 22.5303 8.46967C22.3897 8.32902 22.1989 8.25 22 8.25Z" fill="#297BFF"/>
<path d="M11.25 16.5V12.5C11.25 12.3011 11.329 12.1103 11.4697 11.9697C11.6103 11.829 11.8011 11.75 12 11.75C12.1989 11.75 12.3897 11.829 12.5303 11.9697C12.671 12.1103 12.75 12.3011 12.75 12.5V16.5C12.75 16.6989 12.671 16.8897 12.5303 17.0303C12.3897 17.171 12.1989 17.25 12 17.25C11.8011 17.25 11.6103 17.171 11.4697 17.0303C11.329 16.8897 11.25 16.6989 11.25 16.5Z" fill="#297BFF"/>
<path d="M7.25 16.5V12.5C7.25 12.3011 7.32902 12.1103 7.46967 11.9697C7.61032 11.829 7.80109 11.75 8 11.75C8.19891 11.75 8.38968 11.829 8.53033 11.9697C8.67098 12.1103 8.75 12.3011 8.75 12.5V16.5C8.75 16.6989 8.67098 16.8897 8.53033 17.0303C8.38968 17.171 8.19891 17.25 8 17.25C7.80109 17.25 7.61032 17.171 7.46967 17.0303C7.32902 16.8897 7.25 16.6989 7.25 16.5Z" fill="#297BFF"/>
<path d="M15.25 16.5V12.5C15.25 12.3011 15.329 12.1103 15.4697 11.9697C15.6103 11.829 15.8011 11.75 16 11.75C16.1989 11.75 16.3897 11.829 16.5303 11.9697C16.671 12.1103 16.75 12.3011 16.75 12.5V16.5C16.75 16.6989 16.671 16.8897 16.5303 17.0303C16.3897 17.171 16.1989 17.25 16 17.25C15.8011 17.25 15.6103 17.171 15.4697 17.0303C15.329 16.8897 15.25 16.6989 15.25 16.5Z" fill="#297BFF"/>
</svg>
