<svg width="24" height="24" viewBox="0 0 24 24" fill="none" xmlns="http://www.w3.org/2000/svg">
<path d="M19.2413 7.50002H19.92C20.0109 7.50335 20.1007 7.47906 20.1775 7.43033C20.2543 7.38161 20.3146 7.31076 20.3503 7.2271C20.386 7.14345 20.3956 7.05094 20.3777 6.96175C20.3598 6.87257 20.3153 6.7909 20.25 6.72752L15.78 2.26877C15.7178 2.20157 15.6365 2.15496 15.5471 2.13516C15.4577 2.11535 15.3644 2.12331 15.2796 2.15795C15.1948 2.1926 15.1226 2.25229 15.0727 2.32904C15.0227 2.4058 14.9974 2.49598 15 2.58752V3.26627C15 3.82289 15.1098 4.37404 15.323 4.88819C15.5362 5.40235 15.8488 5.8694 16.2427 6.26264C16.6366 6.65588 17.1042 6.96758 17.6188 7.1799C18.1333 7.39223 18.6846 7.50101 19.2413 7.50002ZM13.035 12.0488C12.9148 11.9047 12.7618 11.7915 12.5888 11.7188C12.3605 11.6309 12.1169 11.5901 11.8725 11.5988H11.385V14.82H11.8875C12.1143 14.8269 12.3405 14.7926 12.555 14.7188C12.7297 14.6542 12.8856 14.5472 13.0088 14.4075C13.1378 14.2527 13.2301 14.0706 13.2788 13.875C13.3423 13.6417 13.3726 13.4006 13.3688 13.1588C13.3705 12.9475 13.344 12.7368 13.29 12.5325C13.2392 12.3554 13.1524 12.1908 13.035 12.0488Z" fill="url(#paint0_linear_186_1046)"/>
<path d="M19.2413 9.00001C18.4877 9.00099 17.7413 8.85341 17.0447 8.56571C16.3482 8.278 15.7152 7.85581 15.182 7.32328C14.6488 6.79076 14.2258 6.15834 13.9372 5.4622C13.6486 4.76606 13.5 4.01986 13.5 3.26626C13.5 2.79911 13.3149 2.35099 12.9853 2.01997C12.6557 1.68895 12.2084 1.50199 11.7413 1.50001H7.24125C6.68464 1.49902 6.13329 1.6078 5.61876 1.82013C5.10423 2.03245 4.63662 2.34415 4.24269 2.73739C3.84875 3.13063 3.53623 3.59769 3.32299 4.11184C3.10976 4.62599 3 5.17714 3 5.73376V18.2663C3 18.8229 3.10976 19.374 3.32299 19.8882C3.53623 20.4023 3.84875 20.8694 4.24269 21.2626C4.63662 21.6559 5.10423 21.9676 5.61876 22.1799C6.13329 22.3922 6.68464 22.501 7.24125 22.5H16.7775C17.8984 22.497 18.9724 22.0497 19.7639 21.256C20.5555 20.4623 21 19.3872 21 18.2663V10.7663C21 10.2991 20.8149 9.85099 20.4853 9.51997C20.1557 9.18895 19.7084 9.00199 19.2413 9.00001ZM9.555 12.99C9.47284 13.1898 9.3443 13.3672 9.18 13.5075C9.00963 13.6538 8.81028 13.7624 8.595 13.8263C8.33087 13.9037 8.05645 13.9404 7.78125 13.935H7.39875V15.435C7.39966 15.4595 7.39167 15.4835 7.37625 15.5025C7.35519 15.5259 7.32787 15.5429 7.2975 15.5513C7.24987 15.5661 7.20088 15.5761 7.15125 15.5813C6.99535 15.596 6.8384 15.596 6.6825 15.5813C6.63161 15.5764 6.58135 15.5663 6.5325 15.5513C6.50186 15.5435 6.47436 15.5265 6.45375 15.5025C6.43862 15.4833 6.43067 15.4594 6.43125 15.435V11.1863C6.42756 11.1392 6.43365 11.092 6.44914 11.0475C6.46464 11.0029 6.48919 10.9621 6.52125 10.9275C6.58553 10.8687 6.67045 10.8377 6.7575 10.8413H8.20125C8.32717 10.8532 8.45236 10.872 8.57625 10.8975C8.72673 10.9293 8.87194 10.9823 9.0075 11.055C9.14928 11.1272 9.27644 11.2251 9.3825 11.3438C9.48711 11.4619 9.5674 11.5995 9.61875 11.7488C9.67382 11.9169 9.70044 12.0931 9.6975 12.27C9.6979 12.5171 9.64947 12.7617 9.555 12.99ZM14.1937 14.25C14.0941 14.5357 13.9269 14.793 13.7062 15C13.484 15.2013 13.2184 15.3489 12.93 15.4313C12.5761 15.53 12.2098 15.5767 11.8425 15.57H10.7175C10.6435 15.572 10.5714 15.5467 10.515 15.4988C10.4851 15.4684 10.4623 15.4318 10.448 15.3916C10.4338 15.3515 10.4285 15.3087 10.4325 15.2663V11.1413C10.4285 11.0988 10.4338 11.056 10.448 11.0159C10.4623 10.9757 10.4851 10.9392 10.515 10.9088C10.5714 10.8608 10.6435 10.8355 10.7175 10.8375H11.9325C12.297 10.8295 12.6604 10.8802 13.0087 10.9875C13.2886 11.0754 13.545 11.2254 13.7587 11.4263C13.9659 11.6275 14.1238 11.8739 14.22 12.1463C14.3237 12.4618 14.3719 12.793 14.3625 13.125C14.373 13.507 14.3159 13.8879 14.1937 14.25ZM17.805 11.415C17.8011 11.4563 17.791 11.4967 17.775 11.535C17.765 11.5605 17.7497 11.5835 17.73 11.6025C17.7136 11.6174 17.6921 11.6255 17.67 11.625H16.125V12.9H17.58C17.5995 12.8937 17.6205 12.8937 17.64 12.9C17.6602 12.917 17.6757 12.939 17.685 12.9638C17.7007 13.0008 17.7108 13.04 17.715 13.08C17.7278 13.2047 17.7278 13.3303 17.715 13.455C17.7105 13.4962 17.7004 13.5365 17.685 13.575C17.6759 13.6009 17.6604 13.6241 17.64 13.6425C17.6229 13.6558 17.6016 13.6624 17.58 13.6613H16.125V15.4275C16.1258 15.4531 16.1179 15.4783 16.1025 15.4988C16.0816 15.5224 16.0542 15.5393 16.0238 15.5475C15.975 15.5629 15.9247 15.573 15.8738 15.5775C15.7178 15.5923 15.5609 15.5923 15.405 15.5775C15.354 15.5733 15.3037 15.5632 15.255 15.5475C15.2249 15.5386 15.1977 15.5217 15.1763 15.4988C15.1603 15.4786 15.1523 15.4532 15.1537 15.4275V11.1488C15.1497 11.1063 15.155 11.0635 15.1693 11.0234C15.1835 10.9832 15.2064 10.9467 15.2362 10.9163C15.2927 10.8683 15.3648 10.843 15.4387 10.845H17.67C17.6916 10.8442 17.7128 10.8508 17.73 10.8638C17.7503 10.8823 17.7657 10.9054 17.775 10.9313C17.7909 10.9708 17.801 11.0125 17.805 11.055C17.8086 11.1175 17.8086 11.1801 17.805 11.2425C17.8084 11.3025 17.8084 11.3626 17.805 11.4225V11.415Z" fill="url(#paint1_linear_186_1046)"/>
<path d="M8.36999 11.7037C8.28604 11.66 8.19429 11.6332 8.09999 11.625C8.00305 11.6119 7.90531 11.6056 7.80749 11.6062H7.39874V13.215H7.82999C7.95785 13.217 8.08498 13.1954 8.20499 13.1512C8.30247 13.1148 8.38987 13.0556 8.45999 12.9787C8.52774 12.9012 8.5788 12.8106 8.60999 12.7125C8.64541 12.6035 8.66313 12.4896 8.66249 12.375C8.66814 12.2337 8.6385 12.0932 8.57624 11.9662C8.53336 11.8612 8.46191 11.7703 8.36999 11.7037Z" fill="url(#paint2_linear_186_1046)"/>
<defs>
<linearGradient id="paint0_linear_186_1046" x1="12.2984" y1="5.07716" x2="18.8692" y2="5.12616" gradientUnits="userSpaceOnUse">
<stop stop-color="#6AA3FF"/>
<stop offset="1" stop-color="#3180FF"/>
</linearGradient>
<linearGradient id="paint1_linear_186_1046" x1="4.82647" y1="6.38372" x2="17.9657" y2="6.50218" gradientUnits="userSpaceOnUse">
<stop stop-color="#6AA3FF"/>
<stop offset="1" stop-color="#3180FF"/>
</linearGradient>
<linearGradient id="paint2_linear_186_1046" x1="7.52705" y1="11.9804" x2="8.45003" y2="11.988" gradientUnits="userSpaceOnUse">
<stop stop-color="#6AA3FF"/>
<stop offset="1" stop-color="#3180FF"/>
</linearGradient>
</defs>
</svg>
