<svg width="16" height="16" viewBox="0 0 16 16" fill="none" xmlns="http://www.w3.org/2000/svg">
<path fill-rule="evenodd" clip-rule="evenodd" d="M8.40063 14.5327C9.64063 13.462 13.3333 9.99537 13.3333 6.66671C13.3333 5.25222 12.7714 3.89567 11.7712 2.89547C10.771 1.89528 9.41445 1.33337 7.99996 1.33337C6.58547 1.33337 5.22892 1.89528 4.22872 2.89547C3.22853 3.89567 2.66663 5.25222 2.66663 6.66671C2.66663 9.99537 6.35929 13.462 7.59929 14.5327C7.71481 14.6196 7.85543 14.6665 7.99996 14.6665C8.14449 14.6665 8.28511 14.6196 8.40063 14.5327ZM8 9.33346C9.47276 9.33346 10.6667 8.13955 10.6667 6.66679C10.6667 5.19403 9.47276 4.00012 8 4.00012C6.52724 4.00012 5.33333 5.19403 5.33333 6.66679C5.33333 8.13955 6.52724 9.33346 8 9.33346Z" fill="url(#paint0_linear_2001_111)"/>
<defs>
<linearGradient id="paint0_linear_2001_111" x1="3.74898" y1="4.43411" x2="11.5352" y2="4.49963" gradientUnits="userSpaceOnUse">
<stop stop-color="#6AA3FF"/>
<stop offset="1" stop-color="#3180FF"/>
</linearGradient>
</defs>
</svg>
