<svg width="31" height="30" viewBox="0 0 31 30" fill="none" xmlns="http://www.w3.org/2000/svg">
<g clip-path="url(#clip0_2001_730)">
<path d="M26.4091 0H4.59091C2.33156 0 0.5 1.83156 0.5 4.09091V25.9091C0.5 28.1684 2.33156 30 4.59091 30H26.4091C28.6684 30 30.5 28.1684 30.5 25.9091V4.09091C30.5 1.83156 28.6684 0 26.4091 0Z" fill="#1C8ADB"/>
<path d="M23.6716 7.75562L23.3614 7.86812L6.52387 13.9346C6.40455 13.9715 6.30084 14.0469 6.22901 14.1491C6.15717 14.2513 6.12127 14.3744 6.12692 14.4992C6.13257 14.6239 6.17947 14.7433 6.26025 14.8385C6.34103 14.9338 6.45113 14.9996 6.5733 15.0255L10.9318 16.2187L11.7449 18.6051L12.558 20.9914C12.6047 21.1084 12.6792 21.2122 12.7752 21.2938C12.8711 21.3755 12.9855 21.4324 13.1085 21.4598C13.2314 21.4872 13.3592 21.4842 13.4807 21.4509C13.6022 21.4177 13.7138 21.3554 13.8057 21.2693L16.0574 19.142L20.479 22.1403C21.0193 22.5085 21.7898 22.2357 21.9278 21.6289L24.8563 8.68971C24.9994 8.0488 24.3244 7.5221 23.6716 7.75562ZM21.5222 10.6278L13.9148 16.846L13.5568 17.1391C13.4782 17.2015 13.4268 17.2919 13.4136 17.3914L13.3335 18.0528L13.1136 19.9107C13.1154 19.9333 13.1082 19.9557 13.0935 19.973C13.0788 19.9903 13.0578 20.001 13.0352 20.0028C13.0126 20.0046 12.9902 19.9973 12.973 19.9826C12.9557 19.9679 12.945 19.947 12.9432 19.9244L12.3244 18.0681L11.6852 16.1676C11.6582 16.0821 11.6618 15.9899 11.6954 15.9069C11.729 15.8238 11.7905 15.7551 11.8693 15.7124L19.7852 11.1749L21.275 10.3227C21.4915 10.1965 21.7131 10.471 21.5222 10.6278Z" fill="white"/>
</g>
<defs>
<clipPath id="clip0_2001_730">
<rect width="30" height="30" fill="white" transform="translate(0.5)"/>
</clipPath>
</defs>
</svg>
