<svg width="31" height="30" viewBox="0 0 31 30" fill="none" xmlns="http://www.w3.org/2000/svg">
<g clip-path="url(#clip0_2001_735)">
<path d="M26.4091 0H4.59091C2.33156 0 0.5 1.83156 0.5 4.09091V25.9091C0.5 28.1684 2.33156 30 4.59091 30H26.4091C28.6684 30 30.5 28.1684 30.5 25.9091V4.09091C30.5 1.83156 28.6684 0 26.4091 0Z" fill="#29A71A"/>
<path d="M22.1136 8.3863C20.553 6.81011 18.4805 5.84348 16.2699 5.66077C14.0594 5.47807 11.8563 6.09131 10.0581 7.3899C8.25983 8.68848 6.98484 10.5869 6.46306 12.7428C5.94128 14.8986 6.20707 17.17 7.21248 19.1471L6.22554 23.9386C6.2153 23.9863 6.21501 24.0356 6.22469 24.0834C6.23437 24.1312 6.25381 24.1765 6.28179 24.2164C6.32279 24.2771 6.38131 24.3237 6.44953 24.3502C6.51775 24.3767 6.59244 24.3818 6.66361 24.3647L11.3596 23.2516C13.3312 24.2316 15.5865 24.4803 17.7243 23.9535C19.862 23.4267 21.7435 22.1585 23.034 20.3747C24.3245 18.5908 24.9402 16.407 24.7717 14.2117C24.6032 12.0165 23.6613 9.95226 22.1136 8.3863ZM20.6494 20.0727C19.5696 21.1494 18.1792 21.8602 16.674 22.1048C15.1688 22.3495 13.6249 22.1157 12.2596 21.4363L11.6051 21.1124L8.72611 21.7943L8.73464 21.7585L9.33123 18.8607L9.01077 18.2284C8.3132 16.8584 8.06713 15.3027 8.30779 13.7843C8.54846 12.2659 9.26352 10.8626 10.3505 9.77551C11.7164 8.41007 13.5687 7.64301 15.5 7.64301C17.4313 7.64301 19.2835 8.41007 20.6494 9.77551C20.661 9.78885 20.6736 9.80138 20.6869 9.81301C22.0358 11.182 22.7889 13.0287 22.7819 14.9506C22.7748 16.8724 22.0083 18.7136 20.6494 20.0727Z" fill="white"/>
<path d="M20.3937 17.9471C20.0409 18.5028 19.4835 19.1829 18.7829 19.3517C17.5556 19.6483 15.6721 19.3619 13.3284 17.1767L13.2994 17.1511C11.2386 15.2403 10.7034 13.65 10.8329 12.3886C10.9045 11.6727 11.5011 11.025 12.0039 10.6022C12.0834 10.5344 12.1777 10.4861 12.2792 10.4612C12.3807 10.4363 12.4866 10.4355 12.5885 10.4588C12.6904 10.4822 12.7854 10.5291 12.8659 10.5957C12.9464 10.6623 13.0102 10.7469 13.0522 10.8426L13.8107 12.5471C13.86 12.6577 13.8783 12.7795 13.8636 12.8996C13.8489 13.0197 13.8017 13.1336 13.7272 13.2289L13.3437 13.7267C13.2614 13.8294 13.2117 13.9545 13.2011 14.0857C13.1905 14.217 13.2194 14.3484 13.284 14.463C13.4988 14.8397 14.0136 15.3937 14.5846 15.9068C15.2255 16.4863 15.9363 17.0164 16.3863 17.1971C16.5067 17.2463 16.6391 17.2583 16.7664 17.2316C16.8937 17.2049 17.0101 17.1406 17.1005 17.0471L17.5454 16.5988C17.6312 16.5142 17.738 16.4538 17.8548 16.4239C17.9716 16.3939 18.0942 16.3955 18.2102 16.4284L20.0119 16.9397C20.1113 16.9702 20.2024 17.023 20.2782 17.0941C20.3541 17.1652 20.4126 17.2527 20.4495 17.3499C20.4863 17.4471 20.5005 17.5515 20.4908 17.655C20.4811 17.7585 20.4479 17.8584 20.3937 17.9471Z" fill="white"/>
</g>
<defs>
<clipPath id="clip0_2001_735">
<rect width="30" height="30" fill="white" transform="translate(0.5)"/>
</clipPath>
</defs>
</svg>
